<svg xmlns="http://www.w3.org/2000/svg" width="84.316" height="85" viewBox="0 0 84.316 85"><defs><style>.a{fill:#00aeef;}.b{fill:#1aaeef;}</style></defs><g transform="translate(-596.893 -1514.625)"><g transform="translate(596.893 1560.5)"><g transform="translate(0 0)"><g transform="translate(0 0)"><path class="a" d="M83.216,234.828c-2.633-1.785-5.736-1.279-8.484.307S56.208,250.21,56.208,250.21l-15.53,0a1.7,1.7,0,0,1-1.5-1.532,1.537,1.537,0,0,1,1.5-1.5h9.5c3.326,0,7.049-2.167,7.049-6.019,0-4.093-3.723-6.019-7.049-6.019-5.769,0-6.892.024-6.892.024a13.982,13.982,0,0,1-6.462-1.1,17.819,17.819,0,0,0-8.144-1.932,17.39,17.39,0,0,0-12.475,5.11L0,253.192,18.058,271.25l6.019-6.019H54.555a12.39,12.39,0,0,0,8.228-3.127l20.637-23.15A2.638,2.638,0,0,0,83.216,234.828Z" transform="translate(0 -232.125)"/></g></g></g><g transform="translate(633.209 1514.625)"><g transform="translate(0)"><path class="b" d="M90.419,13.587H88.155V10.568a10.568,10.568,0,0,0-21.135,0v3.019H64.755a.754.754,0,0,0-.755.755V33.213a3.022,3.022,0,0,0,3.019,3.019H88.155a3.022,3.022,0,0,0,3.019-3.019V14.342A.754.754,0,0,0,90.419,13.587ZM79.847,29.355a.755.755,0,0,1-.75.838H76.077a.755.755,0,0,1-.75-.838l.476-4.282a2.986,2.986,0,0,1-1.235-2.428,3.019,3.019,0,1,1,6.039,0,2.986,2.986,0,0,1-1.235,2.428Zm3.779-15.768H71.548V10.568a6.039,6.039,0,0,1,12.077,0Z" transform="translate(-64)"/></g></g></g></svg>