<svg xmlns="http://www.w3.org/2000/svg" width="85" height="85" viewBox="0 0 85 85"><defs><style>.a{fill:#00aeef;}</style></defs><path class="a" d="M421.107,160.961h-3.9V151h-4.98v9.961H408.49a2.49,2.49,0,0,0-2.49,2.49v47.48h15.107a2.49,2.49,0,0,0,2.49-2.49v-44.99A2.49,2.49,0,0,0,421.107,160.961Z" transform="translate(-338.598 -125.932)"/><path class="a" d="M353.5,20.088h19.922V2.49A2.49,2.49,0,0,0,370.932,0H353.5Z" transform="translate(-294.813)"/><path class="a" d="M285.941,301H273.49a2.49,2.49,0,0,0-2.49,2.49v32.539h17.432V303.49A2.49,2.49,0,0,0,285.941,301Z" transform="translate(-226.01 -251.029)"/><path class="a" d="M150.941,361H138.49a2.49,2.49,0,0,0-2.49,2.49v22.578h17.432V363.49A2.49,2.49,0,0,0,150.941,361Z" transform="translate(-113.422 -301.068)"/><path class="a" d="M15.107,421H2.49A2.49,2.49,0,0,0,0,423.49v10.127a2.49,2.49,0,0,0,2.49,2.49H17.6V423.49A2.49,2.49,0,0,0,15.107,421Z" transform="translate(0 -351.107)"/><path class="a" d="M248.8,32.316a2.494,2.494,0,0,0,.124,2.556l4.059,6.089L248.92,47.05a2.49,2.49,0,0,0,2.072,3.871h9.961V31h-9.961A2.49,2.49,0,0,0,248.8,32.316Z" transform="translate(-207.247 -25.854)"/></svg>